<svg xmlns="http://www.w3.org/2000/svg" version="1.1" xmlns:xlink="http://www.w3.org/1999/xlink" xmlns:svgjs="http://svgjs.dev/svgjs" width="1000" height="1000" viewBox="0 0 1000 1000"><rect width="1000" height="1000" fill="#ffffff"></rect><g transform="matrix(0.7,0,0,0.7,149.84897959183672,150.19913061224486)"><svg viewBox="0 0 343 343" data-background-color="#77d4fc" preserveAspectRatio="xMidYMid meet" height="999" width="1000" xmlns="http://www.w3.org/2000/svg" xmlns:xlink="http://www.w3.org/1999/xlink"><g id="tight-bounds" transform="matrix(1,0,0,1,0.07400000000001228,0.07400000000001228)"><svg viewBox="0 0 342.8515585177538 342.8515585177538" height="342.8515585177538" width="342.8515585177538"><g><svg></svg></g><g><svg viewBox="0 0 342.8515585177538 342.8515585177538" height="342.8515585177538" width="342.8515585177538"><g><path d="M0 171.426c0-94.676 76.75-171.426 171.426-171.426 94.676 0 171.426 76.75 171.426 171.426 0 94.676-76.75 171.426-171.426 171.426-94.676 0-171.426-76.75-171.426-171.426zM171.426 340.961c93.632 0 169.535-75.903 169.535-169.535 0-93.632-75.903-169.535-169.535-169.535-93.632 0-169.535 75.903-169.535 169.535 0 93.632 75.903 169.535 169.535 169.535z" data-fill-palette-color="tertiary" fill="#000000" stroke="transparent"></path><ellipse rx="164.56874808852183" ry="164.56874808852183" cx="171.4257792588769" cy="171.4257792588769" fill="#000000" stroke="transparent" stroke-width="0" fill-opacity="1" data-fill-palette-color="tertiary"></ellipse></g><g transform="matrix(1,0,0,1,64.84655864529836,95.7983101285198)"><svg viewBox="0 0 213.15844122715708 151.2549382607142" height="151.2549382607142" width="213.15844122715708"><g><svg viewBox="0 0 213.15844122715708 151.2549382607142" height="151.2549382607142" width="213.15844122715708"><g><svg viewBox="0 0 213.15844122715708 151.2549382607142" height="151.2549382607142" width="213.15844122715708"><g transform="matrix(1,0,0,1,0,112.3851915224031)"><svg viewBox="0 0 213.15844122715708 38.869746738311086" height="38.869746738311086" width="213.15844122715708"><g id="textblocktransform"><svg viewBox="0 0 213.15844122715708 38.869746738311086" height="38.869746738311086" width="213.15844122715708" id="textblock"><g><svg viewBox="0 0 213.15844122715708 20.96448405475886" height="20.96448405475886" width="213.15844122715708"><g transform="matrix(1,0,0,1,0,0)"><svg width="213.15844122715708" viewBox="3.5 -35.349998474121094 363.9700012207031 35.79999923706055" height="20.96448405475886" data-palette-color="#77d4fc"><path d="M7.55 0L3.5 0 5.95-33.7 11.1-33.7 15.55-21.4 20.95-5.7Q23.85-13.9 26.65-21.4L26.65-21.4 31.3-33.7 36.45-33.7 39.4 0 35.35 0 34.2-13.3 33-28.25Q30.35-20.85 27.55-13.3L27.55-13.3 22.85-0.75 19-0.75 14.55-13.3 9.45-27.95Q9.45-26 8.5-13.3L8.5-13.3 7.55 0ZM56.8 0.45L56.8 0.45Q51.35 0.45 48.17-3.23 45-6.9 45-12.5L45-12.5Q45-18.15 48.27-21.93 51.55-25.7 56.8-25.7L56.8-25.7Q62.55-25.7 65.67-22 68.8-18.3 68.8-12.6L68.8-12.6Q68.8-6.95 65.6-3.25 62.4 0.45 56.8 0.45ZM56.8-22.2L56.8-22.2Q53.2-22.2 51.15-19.4 49.1-16.6 49.1-12.55L49.1-12.55Q49.1-8.6 51.2-5.83 53.3-3.05 56.8-3.05L56.8-3.05Q60.6-3.05 62.65-5.78 64.7-8.5 64.7-12.55L64.7-12.55Q64.7-16.75 62.75-19.48 60.8-22.2 56.8-22.2ZM74.6-35.35L78.5-35.35 78.5-20.95Q80.75-25.7 86.5-25.7L86.5-25.7Q90.15-25.7 92.37-23.45 94.6-21.2 94.6-17.35L94.6-17.35 94.6 0 90.65 0 90.65-16.4Q90.65-19.15 89.22-20.65 87.8-22.15 85.5-22.15L85.5-22.15Q82.7-22.15 80.6-20 78.5-17.85 78.5-13.85L78.5-13.85 78.5 0 74.6 0 74.6-35.35ZM115.24-8.45L115.24-11.7 110.84-11.7Q107.64-11.7 106.04-10.45 104.44-9.2 104.44-7.3 104.44-5.4 105.69-4.23 106.94-3.05 109.34-3.05L109.34-3.05Q112.04-3.05 113.64-4.58 115.24-6.1 115.24-8.45L115.24-8.45ZM102.14-20.05L102.14-20.05 102.14-24Q104.99-25.75 109.64-25.75L109.64-25.75Q119.19-25.75 119.19-16.05L119.19-16.05 119.19 0 115.29 0 115.29-3Q113.34 0.25 108.19 0.25L108.19 0.25Q104.64 0.25 102.47-1.85 100.29-3.95 100.29-7.15L100.29-7.15Q100.29-10.8 103.07-12.83 105.84-14.85 110.64-14.85L110.64-14.85 115.24-14.85 115.24-16.15Q115.24-19.15 113.89-20.68 112.54-22.2 109.34-22.2L109.34-22.2Q105.29-22.2 102.14-20.05ZM126.19-25.35L130.09-25.35 130.09-21.25Q132.19-25.7 137.24-25.7L137.24-25.7Q143.09-25.7 144.64-20.75L144.64-20.75Q145.74-23.15 147.72-24.43 149.69-25.7 152.14-25.7L152.14-25.7Q156.09-25.7 158.09-23.45 160.09-21.2 160.09-17.4L160.09-17.4 160.09 0 156.14 0 156.14-16.4Q156.14-22.15 151.29-22.15L151.29-22.15Q148.89-22.15 146.99-19.98 145.09-17.8 145.09-13.85L145.09-13.85 145.09 0 141.14 0 141.14-16.4Q141.14-22.15 136.29-22.15L136.29-22.15Q133.89-22.15 131.99-19.98 130.09-17.8 130.09-13.85L130.09-13.85 130.09 0 126.19 0 126.19-25.35ZM169.64-14.3L183.24-14.3 183.24-15.3Q183.24-18.45 181.54-20.33 179.84-22.2 176.84-22.2L176.84-22.2Q173.99-22.2 171.99-20.15 169.99-18.1 169.64-14.3L169.64-14.3ZM185.59-5L185.59-5 185.59-1.3Q182.64 0.25 178.39 0.25L178.39 0.25Q172.64 0.25 169.11-3.28 165.59-6.8 165.59-12.6L165.59-12.6Q165.59-18.65 168.74-22.15 171.89-25.65 176.84-25.65L176.84-25.65Q181.59-25.65 184.39-22.6 187.19-19.55 187.19-13.95L187.19-13.95Q187.19-12.35 186.94-11L186.94-11 169.64-11Q170.09-7.25 172.49-5.25 174.89-3.25 178.79-3.25L178.79-3.25Q183.04-3.25 185.59-5ZM202.84-3.2L202.84-3.2Q205.94-3.2 208.11-5.5 210.29-7.8 210.29-12.85L210.29-12.85Q210.29-17.65 208.04-19.9 205.79-22.15 203.09-22.15L203.09-22.15Q199.94-22.15 197.86-19.63 195.79-17.1 195.79-12.4L195.79-12.4Q195.79-8.3 197.79-5.75 199.79-3.2 202.84-3.2ZM210.29-21.5L210.29-35.35 214.24-35.35 214.24 0 210.29 0 210.29-3.75Q207.59 0.4 202.49 0.4L202.49 0.4Q197.44 0.4 194.56-3.35 191.69-7.1 191.69-12.45L191.69-12.45Q191.69-18.4 194.74-22.08 197.79-25.75 202.59-25.75L202.59-25.75Q207.54-25.75 210.29-21.5L210.29-21.5ZM253.73-33.7L258.43-33.7 246.88-12.55 246.88 0 242.83 0 242.83-12.5 231.38-33.7 236.08-33.7 238.63-28.75Q241.23-23.75 242.78-20.6 244.33-17.45 244.58-16.8L244.58-16.8 244.83-16.2Q245.28-17.45 251.18-28.75L251.18-28.75 253.73-33.7ZM277.03-8.45L277.03-11.7 272.63-11.7Q269.43-11.7 267.83-10.45 266.23-9.2 266.23-7.3 266.23-5.4 267.48-4.23 268.73-3.05 271.13-3.05L271.13-3.05Q273.83-3.05 275.43-4.58 277.03-6.1 277.03-8.45L277.03-8.45ZM263.93-20.05L263.93-20.05 263.93-24Q266.78-25.75 271.43-25.75L271.43-25.75Q280.98-25.75 280.98-16.05L280.98-16.05 280.98 0 277.08 0 277.08-3Q275.13 0.25 269.98 0.25L269.98 0.25Q266.43 0.25 264.25-1.85 262.08-3.95 262.08-7.15L262.08-7.15Q262.08-10.8 264.85-12.83 267.63-14.85 272.43-14.85L272.43-14.85 277.03-14.85 277.03-16.15Q277.03-19.15 275.68-20.68 274.33-22.2 271.13-22.2L271.13-22.2Q267.08-22.2 263.93-20.05ZM301.78-24.5L301.78-24.5 301.78-20.75Q299.48-22.15 295.48-22.15L295.48-22.15Q293.48-22.15 292.3-21.23 291.13-20.3 291.13-18.85L291.13-18.85Q291.13-17.95 291.48-17.28 291.83-16.6 292.85-15.95 293.88-15.3 294.35-15.08 294.83-14.85 296.43-14.15L296.43-14.15Q299.63-12.85 301.43-11.2 303.23-9.55 303.23-6.75L303.23-6.75Q303.23-3.5 300.95-1.6 298.68 0.3 294.73 0.3L294.73 0.3Q290.13 0.3 287.28-1.25L287.28-1.25 287.28-5.1Q290.63-3.1 294.48-3.1L294.48-3.1Q296.78-3.1 297.98-4 299.18-4.9 299.18-6.45L299.18-6.45Q299.18-8.25 297.85-9.25 296.53-10.25 293.43-11.5L293.43-11.5Q290.58-12.6 288.85-14.25 287.13-15.9 287.13-18.7L287.13-18.7Q287.13-21.85 289.5-23.73 291.88-25.6 295.43-25.6L295.43-25.6Q299.38-25.6 301.78-24.5ZM322.37-24.5L322.37-24.5 322.37-20.75Q320.07-22.15 316.07-22.15L316.07-22.15Q314.07-22.15 312.9-21.23 311.72-20.3 311.72-18.85L311.72-18.85Q311.72-17.95 312.07-17.28 312.42-16.6 313.45-15.95 314.47-15.3 314.95-15.08 315.42-14.85 317.02-14.15L317.02-14.15Q320.22-12.85 322.02-11.2 323.82-9.55 323.82-6.75L323.82-6.75Q323.82-3.5 321.55-1.6 319.27 0.3 315.32 0.3L315.32 0.3Q310.72 0.3 307.87-1.25L307.87-1.25 307.87-5.1Q311.22-3.1 315.07-3.1L315.07-3.1Q317.37-3.1 318.57-4 319.77-4.9 319.77-6.45L319.77-6.45Q319.77-8.25 318.45-9.25 317.12-10.25 314.02-11.5L314.02-11.5Q311.17-12.6 309.45-14.25 307.72-15.9 307.72-18.7L307.72-18.7Q307.72-21.85 310.1-23.73 312.47-25.6 316.02-25.6L316.02-25.6Q319.97-25.6 322.37-24.5ZM331.72-14.3L345.32-14.3 345.32-15.3Q345.32-18.45 343.62-20.33 341.92-22.2 338.92-22.2L338.92-22.2Q336.07-22.2 334.07-20.15 332.07-18.1 331.72-14.3L331.72-14.3ZM347.67-5L347.67-5 347.67-1.3Q344.72 0.25 340.47 0.25L340.47 0.25Q334.72 0.25 331.2-3.28 327.67-6.8 327.67-12.6L327.67-12.6Q327.67-18.65 330.82-22.15 333.97-25.65 338.92-25.65L338.92-25.65Q343.67-25.65 346.47-22.6 349.27-19.55 349.27-13.95L349.27-13.95Q349.27-12.35 349.02-11L349.02-11 331.72-11Q332.17-7.25 334.57-5.25 336.97-3.25 340.87-3.25L340.87-3.25Q345.12-3.25 347.67-5ZM355.27-25.35L359.17-25.35 359.17-20.9Q361.17-25.6 366.07-25.6L366.07-25.6Q366.97-25.6 367.47-25.5L367.47-25.5 367.47-21.6Q366.42-21.95 365.32-21.95L365.32-21.95Q362.67-21.95 360.92-19.5 359.17-17.05 359.17-13.85L359.17-13.85 359.17 0 355.22 0 355.27-25.35Z" opacity="1" transform="matrix(1,0,0,1,0,0)" fill="#ffffff" class="wordmark-text-0" data-fill-palette-color="quaternary" id="text-0"></path></svg></g></svg></g><g transform="matrix(1,0,0,1,0,25.913695592470113)"><svg viewBox="0 0 213.15844122715708 12.956051145840975" height="12.956051145840975" width="213.15844122715708"><g transform="matrix(1,0,0,1,0,0)"><svg width="213.15844122715708" viewBox="5.25 -34 751.8800048828125 45.70000076293945" height="12.956051145840975" data-palette-color="#77d4fc"><path d="M5.25 0L5.25-30.88 13.8-30.88Q18.45-30.88 21.84-28.96 25.23-27.05 27.08-23.59 28.93-20.13 28.93-15.45L28.93-15.45Q28.93-10.83 27.08-7.35 25.23-3.88 21.84-1.94 18.45 0 13.8 0L13.8 0 5.25 0ZM13.8-28.38L8.15-28.38 8.15-2.45 13.8-2.45Q17.55-2.45 20.25-4.15 22.95-5.85 24.41-8.79 25.88-11.73 25.88-15.45L25.88-15.45Q25.88-19.2 24.41-22.11 22.95-25.03 20.25-26.7 17.55-28.38 13.8-28.38L13.8-28.38ZM112.78 0.55L112.78 0.55Q109.68 0.55 107.31-1.04 104.95-2.63 103.6-5.41 102.25-8.2 102.25-11.78L102.25-11.78Q102.25-15.68 103.59-18.48 104.93-21.28 107.29-22.78 109.65-24.28 112.78-24.28L112.78-24.28Q115.4-24.28 117.24-23.21 119.08-22.15 120.2-20.33 121.33-18.5 121.79-16.2 122.25-13.9 122.15-11.45L122.15-11.45 104.63-11.45 104.63-13.45 120.38-13.45 119.23-12.7Q119.3-14.33 119.04-15.94 118.78-17.55 118.06-18.9 117.35-20.25 116.08-21.08 114.8-21.9 112.8-21.9L112.8-21.9Q110.25-21.9 108.55-20.59 106.85-19.28 106.01-17.19 105.18-15.1 105.18-12.73L105.18-12.73 105.18-11.5Q105.18-8.78 106.01-6.6 106.85-4.42 108.54-3.15 110.23-1.88 112.78-1.88L112.78-1.88Q115.4-1.88 117.06-3.16 118.73-4.45 119.05-6.95L119.05-6.95 122.15-6.95Q121.78-4.58 120.49-2.9 119.2-1.23 117.23-0.34 115.25 0.55 112.78 0.55ZM202.95 0L193.15-23.73 196.43-23.73 204.78-2.5 204.18-2.5 212.53-23.73 215.8-23.73 206 0 202.95 0ZM297.23 0.55L297.23 0.55Q294.13 0.55 291.76-1.04 289.4-2.63 288.05-5.41 286.7-8.2 286.7-11.78L286.7-11.78Q286.7-15.68 288.04-18.48 289.38-21.28 291.74-22.78 294.1-24.28 297.23-24.28L297.23-24.28Q299.85-24.28 301.69-23.21 303.53-22.15 304.65-20.33 305.78-18.5 306.24-16.2 306.7-13.9 306.6-11.45L306.6-11.45 289.08-11.45 289.08-13.45 304.83-13.45 303.68-12.7Q303.75-14.33 303.49-15.94 303.23-17.55 302.51-18.9 301.8-20.25 300.53-21.08 299.25-21.9 297.25-21.9L297.25-21.9Q294.7-21.9 293-20.59 291.3-19.28 290.46-17.19 289.63-15.1 289.63-12.73L289.63-12.73 289.63-11.5Q289.63-8.78 290.46-6.6 291.3-4.42 292.99-3.15 294.68-1.88 297.23-1.88L297.23-1.88Q299.85-1.88 301.51-3.16 303.18-4.45 303.5-6.95L303.5-6.95 306.6-6.95Q306.23-4.58 304.94-2.9 303.65-1.23 301.68-0.34 299.7 0.55 297.23 0.55ZM384.7 0L381.8 0 381.8-34 384.7-34 384.7 0ZM470.65 0.55L470.65 0.55Q467.48 0.55 465.05-0.88 462.63-2.3 461.24-5.08 459.85-7.85 459.85-11.88L459.85-11.88Q459.85-15.9 461.24-18.66 462.63-21.43 465.05-22.85 467.48-24.28 470.65-24.28L470.65-24.28Q473.83-24.28 476.25-22.85 478.68-21.43 480.05-18.66 481.43-15.9 481.43-11.88L481.43-11.88Q481.43-7.85 480.05-5.08 478.68-2.3 476.25-0.88 473.83 0.55 470.65 0.55ZM470.6-1.98L470.6-1.98Q473.23-1.98 474.98-3.21 476.73-4.45 477.59-6.68 478.45-8.9 478.45-11.88L478.45-11.88Q478.45-16.35 476.54-19.07 474.63-21.8 470.7-21.8L470.7-21.8Q468.08-21.8 466.34-20.56 464.6-19.33 463.74-17.09 462.88-14.85 462.88-11.88L462.88-11.88Q462.88-7.43 464.79-4.7 466.7-1.98 470.6-1.98ZM566.73 0.55L566.73 0.55Q564.13 0.55 562.16-0.68 560.2-1.9 559.11-4.2 558.03-6.5 558.03-9.73L558.03-9.73 559.43-9.73Q559.43-7.2 560.44-5.49 561.45-3.78 563.06-2.9 564.68-2.02 566.48-2.02L566.48-2.02Q568.45-2.02 570.2-3.18 571.95-4.33 573.05-6.54 574.15-8.75 574.15-11.93L574.15-11.93Q574.15-15.05 573.1-17.24 572.05-19.43 570.31-20.59 568.58-21.75 566.5-21.75L566.5-21.75Q564.7-21.75 563.08-20.85 561.45-19.95 560.44-18.21 559.43-16.48 559.43-13.9L559.43-13.9 558.03-13.9Q558.03-17.2 559.16-19.53 560.3-21.85 562.28-23.06 564.25-24.28 566.75-24.28L566.75-24.28Q569.53-24.28 571.9-22.79 574.28-21.3 575.73-18.54 577.18-15.78 577.18-11.93L577.18-11.93Q577.18-8.03 575.71-5.23 574.25-2.43 571.86-0.94 569.48 0.55 566.73 0.55ZM559.43 11.7L556.53 11.7 556.53-23.73 558.98-23.73 559.43-18.32 559.43 11.7ZM660.3 0.55L660.3 0.55Q657.2 0.55 654.84-1.04 652.48-2.63 651.13-5.41 649.78-8.2 649.78-11.78L649.78-11.78Q649.78-15.68 651.11-18.48 652.45-21.28 654.81-22.78 657.18-24.28 660.3-24.28L660.3-24.28Q662.93-24.28 664.76-23.21 666.6-22.15 667.73-20.33 668.85-18.5 669.31-16.2 669.78-13.9 669.68-11.45L669.68-11.45 652.15-11.45 652.15-13.45 667.9-13.45 666.75-12.7Q666.83-14.33 666.56-15.94 666.3-17.55 665.59-18.9 664.88-20.25 663.6-21.08 662.33-21.9 660.33-21.9L660.33-21.9Q657.78-21.9 656.08-20.59 654.38-19.28 653.54-17.19 652.7-15.1 652.7-12.73L652.7-12.73 652.7-11.5Q652.7-8.78 653.54-6.6 654.38-4.42 656.06-3.15 657.75-1.88 660.3-1.88L660.3-1.88Q662.93-1.88 664.59-3.16 666.25-4.45 666.58-6.95L666.58-6.95 669.68-6.95Q669.3-4.58 668.01-2.9 666.73-1.23 664.75-0.34 662.78 0.55 660.3 0.55ZM747.78 0L744.88 0 744.88-23.75 747.78-23.75 747.78 0ZM747.78-10.88L746.7-10.88Q746.7-15.33 747.48-18.28 748.25-21.23 749.88-22.7 751.5-24.18 754.03-24.18L754.03-24.18Q754.9-24.18 755.64-24.05 756.38-23.93 757.13-23.65L757.13-23.65 756.8-20.83Q756.08-21.1 755.2-21.29 754.33-21.48 753.68-21.48L753.68-21.48Q751.45-21.48 750.16-20.13 748.88-18.78 748.33-16.39 747.78-14 747.78-10.88L747.78-10.88Z" opacity="1" transform="matrix(1,0,0,1,0,0)" fill="#ffffff" class="slogan-text-1" data-fill-palette-color="quaternary" id="text-1"></path></svg></g></svg></g></svg></g></svg></g><g transform="matrix(1,0,0,1,19.16951639045537,0)"><svg viewBox="0 0 174.81940844624634 107.43597998469185" height="107.43597998469185" width="174.81940844624634"><g><svg xmlns="http://www.w3.org/2000/svg" data-name="Layer 1" viewBox="2.430551767349243 20.79190444946289 95.1390609741211 58.46809768676758" x="0" y="0" height="107.43597998469185" width="174.81940844624634" class="icon-icon-0" data-fill-palette-color="quaternary" id="icon-0"><path d="M62.78 23l32 55.42 1.3-2.26h-64l1.3 2.26L65.37 23a1.5 1.5 0 0 0-2.59-1.51L30.79 77a1.51 1.51 0 0 0 1.3 2.26h64A1.51 1.51 0 0 0 97.37 77l-32-55.42A1.5 1.5 0 0 0 62.78 23Z" fill="#ffffff" data-fill-palette-color="quaternary"></path><path d="M34.63 23l32 55.42 1.3-2.26h-64l1.3 2.26L37.22 23a1.5 1.5 0 0 0-2.59-1.51L2.63 77a1.51 1.51 0 0 0 1.3 2.26h64A1.51 1.51 0 0 0 69.21 77l-32-55.42A1.5 1.5 0 0 0 34.63 23Z" fill="#ffffff" data-fill-palette-color="quaternary"></path></svg></g></svg></g><g></g></svg></g></svg></g></svg></g></svg></g><defs></defs></svg><rect width="342.8515585177538" height="342.8515585177538" fill="none" stroke="none" visibility="hidden"></rect></g></svg></g></svg>